<svg width="72" height="20" fill="none" xmlns="http://www.w3.org/2000/svg"><path d="M.517 19V1.545h3.69v7.202H11.7V1.545h3.682V19h-3.682v-7.21H4.207V19H.517Zm17.838 0V5.91h3.63V19h-3.63ZM20.18 4.222c-.54 0-1.003-.18-1.39-.537-.38-.364-.57-.799-.57-1.304 0-.5.19-.93.57-1.287.387-.364.85-.546 1.39-.546.54 0 1 .182 1.38.546.387.358.58.787.58 1.287 0 .505-.193.94-.58 1.304-.38.358-.84.537-1.38.537Z" fill="#292C27"/><path d="M28.525 1.545V19h-3.63V1.545h3.63ZM31.433 19V5.91h3.63V19h-3.63Zm1.824-14.778c-.54 0-1.003-.18-1.39-.537-.38-.364-.57-.799-.57-1.304 0-.5.19-.93.57-1.287.387-.364.85-.546 1.39-.546.54 0 1 .182 1.38.546.387.358.58.787.58 1.287 0 .505-.193.94-.58 1.304-.38.358-.84.537-1.38.537Zm8.346 7.21V19h-3.63V5.91h3.46v2.309h.153a3.652 3.652 0 0 1 1.457-1.807c.682-.449 1.509-.673 2.48-.673.91 0 1.702.199 2.378.596.676.398 1.202.966 1.577 1.705.375.733.563 1.608.563 2.625V19H46.41v-7.688c.006-.8-.2-1.426-.614-1.874-.415-.455-.986-.682-1.713-.682-.489 0-.92.105-1.295.315-.37.21-.66.517-.87.92-.204.398-.31.878-.315 1.44Zm14.589 3.801.008-4.355h.529l4.193-4.969h4.168l-5.634 6.58h-.86l-2.404 2.744ZM52.902 19V1.545h3.63V19h-3.63Zm8.182 0-3.853-5.702 2.421-2.565L65.337 19h-4.253Zm7.909.222a1.991 1.991 0 0 1-1.449-.597 1.991 1.991 0 0 1-.597-1.449c0-.557.2-1.034.597-1.432a1.991 1.991 0 0 1 1.449-.596c.545 0 1.023.199 1.432.596.409.398.613.875.613 1.432 0 .375-.096.719-.29 1.031a2.204 2.204 0 0 1-.74.742 1.953 1.953 0 0 1-1.015.273Z" fill="#30AF5B"/></svg>