<svg width="28" height="28" fill="none" xmlns="http://www.w3.org/2000/svg"><path d="M14.003 13.65c.675 0 1.251-.24 1.73-.72.478-.481.717-1.059.717-1.733 0-.675-.24-1.251-.72-1.73a2.367 2.367 0 0 0-1.733-.717c-.675 0-1.251.24-1.73.72a2.367 2.367 0 0 0-.717 1.733c0 .675.24 1.251.72 1.73.481.478 1.059.717 1.733.717ZM14 25.235c3.103-2.823 5.396-5.384 6.878-7.683 1.481-2.298 2.222-4.322 2.222-6.072 0-2.748-.878-4.999-2.635-6.751C18.708 2.976 16.553 2.1 14 2.1s-4.708.876-6.465 2.629C5.778 6.48 4.9 8.732 4.9 11.48c0 1.75.758 3.774 2.275 6.072 1.517 2.299 3.792 4.86 6.825 7.683ZM14 28c-3.757-3.197-6.562-6.166-8.417-8.907C3.728 16.35 2.8 13.813 2.8 11.48c0-3.5 1.126-6.288 3.378-8.365C8.429 1.038 11.037 0 14 0s5.57 1.038 7.823 3.115C24.074 5.192 25.2 7.98 25.2 11.48c0 2.333-.927 4.87-2.782 7.613C20.563 21.834 17.757 24.803 14 28Z" fill="#fff"/></svg>