<svg width="28" height="28" fill="none" xmlns="http://www.w3.org/2000/svg"><path d="M25.667 10.5v7c0 2.917-.584 4.958-1.89 6.277l-7.444-7.444 9.019-9.018c.21.922.315 1.972.315 3.185Z" stroke="#fff" stroke-width="1.5" stroke-linecap="round" stroke-linejoin="round"/><path d="M25.352 7.315 7.315 25.352c-3.512-.805-4.982-3.232-4.982-7.852v-7c0-5.833 2.334-8.167 8.167-8.167h7c4.62 0 7.047 1.47 7.852 4.982Z" stroke="#fff" stroke-width="1.5" stroke-linecap="round" stroke-linejoin="round"/><path d="M23.777 23.777c-1.319 1.306-3.36 1.89-6.277 1.89h-7c-1.213 0-2.263-.105-3.185-.315l9.018-9.019 7.444 7.444Z" stroke="#fff" stroke-width="1.5" stroke-linecap="round" stroke-linejoin="round"/><path d="M7.28 9.31c.793-3.418 5.927-3.418 6.72 0 .455 2.007-.805 3.71-1.913 4.76a2.1 2.1 0 0 1-2.894 0c-1.108-1.05-2.38-2.753-1.913-4.76Z" stroke="#fff" stroke-width="1.5"/><path d="M10.61 10.15h.01" stroke="#fff" stroke-width="2" stroke-linecap="round" stroke-linejoin="round"/></svg>