<svg width="186" height="219" fill="none" xmlns="http://www.w3.org/2000/svg"><path d="M147.047 219c11.037 0 20.126-3.911 27.267-11.732 7.791-7.822 11.686-15.969 11.686-24.442S171.393 113.411 142.178 0h-12.66l20.451 139.808h-2.922c-10.387 0-19.801 3.911-28.241 11.732-7.79 7.822-11.686 16.947-11.686 27.375 0 11.08 3.896 20.531 11.686 28.353C126.597 215.089 136.01 219 147.047 219Zm-107.12 0c11.036 0 20.125-3.911 27.267-11.732 7.79-7.822 11.686-15.969 11.686-24.442S64.272 113.411 35.058 0h-12.66l20.45 139.808h-2.921c-10.388 0-19.801 3.911-28.241 11.732C3.896 159.362 0 168.487 0 178.915c0 11.08 3.895 20.531 11.686 28.353C19.476 215.089 28.89 219 39.926 219Z" fill="#fff" fill-opacity=".1"/></svg>